<svg width="164" height="42" viewBox="0 0 164 42" fill="none" xmlns="http://www.w3.org/2000/svg">
<path d="M111.9 4H90.3C86.826 4 84 6.826 84 10.3V40L96.6 33.7L109.2 40V23.8H118.2V10.3C118.2 6.826 115.374 4 111.9 4ZM105.6 34.1752L96.6 29.6752L87.6 34.1752V10.3C87.6 8.8114 88.8114 7.6 90.3 7.6H106.234C105.822 8.44075 105.605 9.36375 105.6 10.3V34.1752ZM114.6 20.2H109.2V10.3C109.2 8.8114 110.411 7.6 111.9 7.6C113.389 7.6 114.6 8.8114 114.6 10.3V20.2Z" fill="#C0392B"/>
<path d="M2.28516 33V7.40625H11.25C14.3555 7.40625 16.7109 8.00391 18.3164 9.19922C19.9219 10.3828 20.7246 12.123 20.7246 14.4199C20.7246 15.6738 20.4023 16.7812 19.7578 17.7422C19.1133 18.6914 18.2168 19.3887 17.0684 19.834C18.3809 20.1621 19.4121 20.8242 20.1621 21.8203C20.9238 22.8164 21.3047 24.0352 21.3047 25.4766C21.3047 27.9375 20.5195 29.8008 18.9492 31.0664C17.3789 32.332 15.1406 32.9766 12.2344 33H2.28516ZM7.55859 21.8555V28.7637H12.0762C13.3184 28.7637 14.2852 28.4707 14.9766 27.8848C15.6797 27.2871 16.0312 26.4668 16.0312 25.4238C16.0312 23.0801 14.8184 21.8906 12.3926 21.8555H7.55859ZM7.55859 18.1289H11.4609C14.1211 18.082 15.4512 17.0215 15.4512 14.9473C15.4512 13.7871 15.1113 12.9551 14.4316 12.4512C13.7637 11.9355 12.7031 11.6777 11.25 11.6777H7.55859V18.1289ZM24.1523 23.3145C24.1523 21.4277 24.5156 19.7461 25.2422 18.2695C25.9688 16.793 27.0117 15.6504 28.3711 14.8418C29.7422 14.0332 31.3301 13.6289 33.1348 13.6289C35.7012 13.6289 37.793 14.4141 39.4102 15.9844C41.0391 17.5547 41.9473 19.6875 42.1348 22.3828L42.1699 23.6836C42.1699 26.6016 41.3555 28.9453 39.7266 30.7148C38.0977 32.4727 35.9121 33.3516 33.1699 33.3516C30.4277 33.3516 28.2363 32.4727 26.5957 30.7148C24.9668 28.957 24.1523 26.5664 24.1523 23.543V23.3145ZM29.2324 23.6836C29.2324 25.4883 29.5723 26.8711 30.252 27.832C30.9316 28.7812 31.9043 29.2559 33.1699 29.2559C34.4004 29.2559 35.3613 28.7871 36.0527 27.8496C36.7441 26.9004 37.0898 25.3887 37.0898 23.3145C37.0898 21.5449 36.7441 20.1738 36.0527 19.2012C35.3613 18.2285 34.3887 17.7422 33.1348 17.7422C31.8926 17.7422 30.9316 18.2285 30.252 19.2012C29.5723 20.1621 29.2324 21.6562 29.2324 23.6836ZM44.5078 23.3145C44.5078 21.4277 44.8711 19.7461 45.5977 18.2695C46.3242 16.793 47.3672 15.6504 48.7266 14.8418C50.0977 14.0332 51.6855 13.6289 53.4902 13.6289C56.0566 13.6289 58.1484 14.4141 59.7656 15.9844C61.3945 17.5547 62.3027 19.6875 62.4902 22.3828L62.5254 23.6836C62.5254 26.6016 61.7109 28.9453 60.082 30.7148C58.4531 32.4727 56.2676 33.3516 53.5254 33.3516C50.7832 33.3516 48.5918 32.4727 46.9512 30.7148C45.3223 28.957 44.5078 26.5664 44.5078 23.543V23.3145ZM49.5879 23.6836C49.5879 25.4883 49.9277 26.8711 50.6074 27.832C51.2871 28.7812 52.2598 29.2559 53.5254 29.2559C54.7559 29.2559 55.7168 28.7871 56.4082 27.8496C57.0996 26.9004 57.4453 25.3887 57.4453 23.3145C57.4453 21.5449 57.0996 20.1738 56.4082 19.2012C55.7168 18.2285 54.7441 17.7422 53.4902 17.7422C52.248 17.7422 51.2871 18.2285 50.6074 19.2012C49.9277 20.1621 49.5879 21.6562 49.5879 23.6836ZM72.5625 25.3711L70.7344 27.1992V33H65.6543V6H70.7344V20.959L71.7188 19.6934L76.5879 13.9805H82.6875L75.8145 21.9082L83.2852 33H77.4492L72.5625 25.3711Z" fill="#34495E"/>
<path d="M123.973 33C123.738 32.543 123.568 31.9746 123.463 31.2949C122.232 32.666 120.633 33.3516 118.664 33.3516C116.801 33.3516 115.254 32.8125 114.023 31.7344C112.805 30.6562 112.195 29.2969 112.195 27.6562C112.195 25.6406 112.939 24.0938 114.428 23.0156C115.928 21.9375 118.09 21.3926 120.914 21.3809H123.252V20.291C123.252 19.4121 123.023 18.709 122.566 18.1816C122.121 17.6543 121.412 17.3906 120.439 17.3906C119.584 17.3906 118.91 17.5957 118.418 18.0059C117.938 18.416 117.697 18.9785 117.697 19.6934H112.617C112.617 18.5918 112.957 17.5723 113.637 16.6348C114.316 15.6973 115.277 14.9648 116.52 14.4375C117.762 13.8984 119.156 13.6289 120.703 13.6289C123.047 13.6289 124.904 14.2207 126.275 15.4043C127.658 16.5762 128.35 18.2285 128.35 20.3613V28.6055C128.361 30.4102 128.613 31.7754 129.105 32.7012V33H123.973ZM119.771 29.4668C120.521 29.4668 121.213 29.3027 121.846 28.9746C122.479 28.6348 122.947 28.1836 123.252 27.6211V24.3516H121.354C118.811 24.3516 117.457 25.2305 117.293 26.9883L117.275 27.2871C117.275 27.9199 117.498 28.4414 117.943 28.8516C118.389 29.2617 118.998 29.4668 119.771 29.4668ZM142.939 18.7441C142.248 18.6504 141.639 18.6035 141.111 18.6035C139.189 18.6035 137.93 19.2539 137.332 20.5547V33H132.252V13.9805H137.051L137.191 16.248C138.211 14.502 139.623 13.6289 141.428 13.6289C141.99 13.6289 142.518 13.7051 143.01 13.8574L142.939 18.7441ZM152.309 25.3711L150.48 27.1992V33H145.4V6H150.48V20.959L151.465 19.6934L156.334 13.9805H162.434L155.561 21.9082L163.031 33H157.195L152.309 25.3711Z" fill="#34495E"/>
</svg>
